P3
3 3
255
143 185 89 234 1 152 223 131 245 
143 185 89 143 185 89 249 43 169 
249 43 169 249 43 169 249 43 169 
